<?xml version="1.0" encoding="UTF-8"?>
<svg width="752pt" height="752pt" version="1.1" viewBox="0 0 752 752" xmlns="http://www.w3.org/2000/svg">
 <g>
  <path d="m420.4 583.19h-88.797c-5.2852 0-10.172-2.8203-12.816-7.3984-2.6406-4.5781-2.6406-10.219 0-14.801 2.6445-4.5781 7.5312-7.3984 12.816-7.3984h88.797c5.2891 0 10.176 2.8203 12.816 7.3984 2.6445 4.582 2.6445 10.223 0 14.801-2.6406 4.5781-7.5273 7.3984-12.816 7.3984z"/>
  <path d="m479.6 210.54c-28.77-28.227-67.914-43.324-108.18-41.734-37.512 1.6328-73.047 17.266-99.594 43.812-26.551 26.551-42.184 62.086-43.812 99.594-0.89453 29.559 7.0859 58.711 22.91 83.691 15.828 24.98 38.777 44.645 65.887 56.461v56.828c0 7.8516 3.1172 15.379 8.668 20.93 5.5508 5.5508 13.078 8.668 20.93 8.668h59.199c7.8477 0 15.379-3.1172 20.93-8.668s8.668-13.078 8.668-20.93v-56.828c45.281-19.625 77.801-60.527 86.715-109.07 8.9102-48.539-6.9609-98.328-42.316-132.76zm-30.637 112.92-59.199 118.39 0.003906 0.003906c-1.2734 2.5312-3.25 4.6445-5.6875 6.0898-2.4414 1.4414-5.2422 2.1523-8.0781 2.0508-1.1289 0.14062-2.2734 0.14062-3.4023 0-3.3125-0.78125-6.2539-2.6797-8.3281-5.375s-3.1602-6.0234-3.0664-9.4258v-59.199h-44.398c-5.1289-0.015625-9.8867-2.6836-12.57-7.0547-2.6836-4.375-2.9102-9.8242-0.60156-14.402l44.398-88.797c1.2305-2.4414 3.1094-4.4922 5.4375-5.9297 2.3242-1.4375 5-2.2031 7.7344-2.2109h59.199-0.003906c2.6797 0.007812 5.3047 0.74219 7.5977 2.1211 2.293 1.3828 4.168 3.3594 5.4258 5.7227 1.1914 2.3164 1.7461 4.9023 1.6172 7.5-0.12891 2.5977-0.94141 5.1172-2.3555 7.3008l-14.801 21.461 17.316-0.003907c5.1289 0.015625 9.8828 2.6875 12.566 7.0586s2.9141 9.8203 0.60547 14.402z"/>
  <path d="m213.21 228.01c-3.9336 0.023438-7.7148-1.5234-10.508-4.293l-29.598-29.598c-3.7539-3.7539-5.2188-9.2266-3.8477-14.355 1.375-5.125 5.3828-9.1328 10.508-10.508 5.1289-1.3711 10.602 0.09375 14.355 3.8477l29.598 29.598c2.8008 2.7812 4.3789 6.5625 4.3789 10.508 0 3.9453-1.5781 7.7305-4.3789 10.508-2.793 2.7695-6.5742 4.3164-10.508 4.293z"/>
  <path d="m198.41 331.6h-14.801c-5.2891 0-10.172-2.8203-12.816-7.3984s-2.6445-10.219 0-14.801c2.6445-4.5781 7.5273-7.3984 12.816-7.3984h14.801c5.2852 0 10.172 2.8203 12.816 7.3984 2.6406 4.582 2.6406 10.223 0 14.801-2.6445 4.5781-7.5312 7.3984-12.816 7.3984z"/>
  <path d="m183.61 450c-3.9336 0.019531-7.7148-1.5234-10.508-4.293-2.8008-2.7773-4.3789-6.5625-4.3789-10.508 0-3.9453 1.5781-7.7305 4.3789-10.508l29.598-29.598c3.7539-3.7539 9.2266-5.2227 14.355-3.8477 5.1289 1.375 9.1328 5.3789 10.508 10.508s-0.09375 10.602-3.8477 14.355l-29.598 29.598c-2.793 2.7695-6.5742 4.3125-10.508 4.293z"/>
  <path d="m538.79 228.01c-3.9336 0.023438-7.7109-1.5234-10.504-4.293-2.8047-2.7773-4.3789-6.5625-4.3789-10.508 0-3.9453 1.5742-7.7266 4.3789-10.508l29.598-29.598c3.7539-3.7539 9.2266-5.2188 14.352-3.8477 5.1289 1.375 9.1367 5.3828 10.508 10.508 1.375 5.1289-0.089844 10.602-3.8438 14.355l-29.598 29.598h-0.003907c-2.793 2.7695-6.5703 4.3164-10.508 4.293z"/>
  <path d="m568.39 331.6h-14.801c-5.2852 0-10.172-2.8203-12.816-7.3984-2.6445-4.5781-2.6445-10.219 0-14.801 2.6445-4.5781 7.5312-7.3984 12.816-7.3984h14.801c5.2852 0 10.172 2.8203 12.816 7.3984 2.6445 4.582 2.6445 10.223 0 14.801-2.6445 4.5781-7.5312 7.3984-12.816 7.3984z"/>
  <path d="m568.39 450c-3.9336 0.019531-7.7148-1.5234-10.508-4.293l-29.598-29.598c-3.7539-3.7539-5.2227-9.2266-3.8477-14.355s5.3789-9.1328 10.508-10.508c5.1289-1.375 10.598 0.09375 14.352 3.8477l29.598 29.598h0.003906c2.8008 2.7773 4.375 6.5625 4.375 10.508 0 3.9453-1.5742 7.7305-4.375 10.508-2.793 2.7695-6.5742 4.3125-10.508 4.293z"/>
 </g>
</svg>
