<?xml version="1.0" encoding="UTF-8"?>
<svg width="752pt" height="752pt" version="1.1" viewBox="0 0 752 752" xmlns="http://www.w3.org/2000/svg">
 <g>
  <path d="m405.6 538.79h-59.199c-7.8516 0-15.379-3.1172-20.93-8.668-5.5508-5.5508-8.668-13.078-8.668-20.93v-56.828c-27.109-11.816-50.059-31.48-65.887-56.461-15.824-24.98-23.805-54.133-22.91-83.691 1.6289-37.508 17.262-73.043 43.812-99.594 26.547-26.547 62.082-42.18 99.594-43.812 40.039-1.2422 78.871 13.801 107.62 41.691 28.754 27.891 44.977 66.246 44.957 106.3-0.015625 28.781-8.4219 56.938-24.195 81.016-15.77 24.078-38.223 43.031-64.602 54.547v56.828c0 7.8516-3.1172 15.379-8.668 20.93s-13.082 8.668-20.93 8.668zm-33.301-340.38c-29.988 1.3359-58.391 13.852-79.617 35.078-21.227 21.223-33.738 49.625-35.078 79.617-0.77734 25.098 6.4492 49.793 20.625 70.516 14.18 20.723 34.582 36.402 58.258 44.77 2.8867 1.0117 5.3906 2.8906 7.168 5.3828 1.7734 2.4883 2.7344 5.4688 2.7461 8.5312v66.891h59.199v-66.891c0.011719-3.0625 0.97266-6.043 2.7461-8.5312 1.7773-2.4922 4.2812-4.3711 7.168-5.3828 35.836-12.645 63.422-41.719 74.168-78.168 10.746-36.445 3.3438-75.84-19.898-105.9-23.242-30.062-59.504-47.141-97.484-45.914z"/>
  <path d="m420.4 583.19h-88.797c-5.2852 0-10.172-2.8203-12.816-7.3984-2.6406-4.5781-2.6406-10.219 0-14.801 2.6445-4.5781 7.5312-7.3984 12.816-7.3984h88.797c5.2891 0 10.176 2.8203 12.816 7.3984 2.6445 4.582 2.6445 10.223 0 14.801-2.6406 4.5781-7.5273 7.3984-12.816 7.3984z"/>
  <path d="m361.2 435.2v-59.199h-44.398c-5.1289-0.015625-9.8867-2.6836-12.57-7.0547-2.6836-4.375-2.9102-9.8242-0.60156-14.402l44.398-88.797c1.2305-2.4414 3.1094-4.4922 5.4375-5.9297 2.3242-1.4375 5-2.2031 7.7344-2.2109h59.199-0.003906c2.6797 0.007812 5.3047 0.74219 7.5977 2.1211 2.293 1.3828 4.168 3.3594 5.4258 5.7227 1.1914 2.3164 1.7461 4.9023 1.6172 7.5-0.12891 2.5977-0.94141 5.1172-2.3555 7.3008l-14.801 21.461 17.316-0.003907c5.1289 0.015625 9.8828 2.6875 12.566 7.0586s2.9141 9.8203 0.60547 14.402l-59.199 118.39c-1.1875 2.4961-3.0508 4.6094-5.3789 6.1016-2.3281 1.4883-5.0273 2.2969-7.793 2.3359-5.0312 0-14.797 0-14.797-14.801zm-20.422-88.797h35.219c3.9258 0 7.6914 1.5586 10.465 4.3359 2.7773 2.7734 4.3359 6.5391 4.3359 10.465v11.246l20.422-40.848h-20.422c-2.6758-0.003906-5.3008-0.73828-7.5977-2.1211-2.293-1.3789-4.168-3.3594-5.4258-5.7227-1.1875-2.3125-1.7461-4.8984-1.6172-7.4961 0.13281-2.5977 0.94531-5.1172 2.3555-7.3008l14.801-21.461h-22.938z"/>
  <path d="m203 223.42-29.598-29.598c-2.875-3.832-3.7148-8.8164-2.2578-13.383 1.457-4.5625 5.0312-8.1367 9.5938-9.5938s9.5508-0.61719 13.383 2.2578l29.598 29.598c2.8008 2.7812 4.3789 6.5625 4.3789 10.508 0 3.9453-1.5781 7.7305-4.3789 10.508-2.8047 2.6719-6.5469 4.1406-10.418 4.082-3.875-0.054687-7.5742-1.625-10.301-4.3789z"/>
  <path d="m548.86 223.42 29.598-29.598c2.8008-2.7773 4.3789-6.5625 4.3789-10.508s-1.5781-7.7266-4.3789-10.508c-2.7734-2.7539-6.5234-4.3008-10.434-4.3008-3.9102 0-7.6602 1.5469-10.434 4.3008l-29.598 29.598v0.003906c-2.8008 2.7773-4.3789 6.5586-4.3789 10.504 0 3.9492 1.5781 7.7305 4.3789 10.508 2.6406 2.9961 6.4414 4.7109 10.434 4.7109 3.9922 0 7.793-1.7148 10.434-4.7109z"/>
  <path d="m198.41 331.6h-14.801c-5.2891 0-10.172-2.8203-12.816-7.3984s-2.6445-10.219 0-14.801c2.6445-4.5781 7.5273-7.3984 12.816-7.3984h14.801c5.2852 0 10.172 2.8203 12.816 7.3984 2.6406 4.582 2.6406 10.223 0 14.801-2.6445 4.5781-7.5312 7.3984-12.816 7.3984z"/>
  <path d="m173.1 445.71c-2.5391-2.9102-3.9375-6.6445-3.9375-10.508s1.3984-7.5977 3.9375-10.508l29.598-29.598c3.7539-3.7539 9.2266-5.2227 14.355-3.8477 5.1289 1.375 9.1328 5.3789 10.508 10.508s-0.09375 10.602-3.8477 14.355l-29.598 29.598c-2.7773 2.8008-6.5625 4.3789-10.508 4.3789s-7.7305-1.5781-10.508-4.3789z"/>
  <path d="m579.2 445.71c2.543-2.9102 3.9414-6.6445 3.9414-10.508s-1.3984-7.5977-3.9414-10.508l-29.598-29.598c-2.7734-2.7578-6.5234-4.3047-10.434-4.3047-3.9102 0-7.6602 1.5469-10.434 4.3047-2.8008 2.7773-4.375 6.5586-4.375 10.508 0 3.9453 1.5742 7.7266 4.375 10.508l29.598 29.598h0.003906c2.7695 2.7578 6.5234 4.3047 10.43 4.3047 3.9102 0 7.6641-1.5469 10.434-4.3047z"/>
  <path d="m568.39 331.6h-14.801c-5.2852 0-10.172-2.8203-12.816-7.3984-2.6445-4.5781-2.6445-10.219 0-14.801 2.6445-4.5781 7.5312-7.3984 12.816-7.3984h14.801c5.2852 0 10.172 2.8203 12.816 7.3984 2.6445 4.582 2.6445 10.223 0 14.801-2.6445 4.5781-7.5312 7.3984-12.816 7.3984z"/>
 </g>
</svg>
