<?xml version="1.0" encoding="UTF-8"?>
<svg width="752pt" height="752pt" version="1.1" viewBox="0 0 752 752" xmlns="http://www.w3.org/2000/svg">
 <path d="m563.54 527.07-151.55-151.07 151.55-151.55c8.5234-9.4727 8.5234-24.152-0.47266-32.676-4.7344-4.7344-10.891-7.1055-17.523-7.1055-6.1562 0-11.84 2.8398-16.102 7.1055l-151.07 151.07-155.81-156.28c-4.7344-4.7344-10.891-7.1055-17.523-7.1055-6.1562 0-11.84 2.8398-16.102 7.1055-4.2617 4.7344-7.1055 10.891-6.6289 17.051 0 6.1562 2.8398 11.84 7.1055 16.102l155.81 156.28-156.28 156.28c-4.7344 4.7344-7.1055 10.891-7.1055 17.523 0 6.1562 2.8398 11.84 7.1055 16.102 3.3164 2.8398 8.5234 6.6289 16.574 6.6289 8.5234 0 13.734-3.7891 17.051-6.6289l156.28-156.28 151.07 151.07c3.3164 3.3164 8.5234 6.6289 17.051 6.6289 8.5234 0 13.734-3.7891 17.051-6.6289 4.7344-4.7344 7.1055-10.891 7.1055-17.523-0.47656-6.1562-2.8477-11.84-7.582-16.102z"/>
</svg>
